<svg width="300.000000" height="300.000000" viewBox="0 0 300 300" fill="none" xmlns="http://www.w3.org/2000/svg" xmlns:xlink="http://www.w3.org/1999/xlink">
	<desc>
			Created with Pixso.
	</desc>
	<rect width="300.000000" height="300.000000"/>
	<g clip-path="url(#clip2_1)">
		<rect x="50.000000" y="50.000000" rx="30.000000" width="200.000000" height="200.000000" fill="#014BAC"/>
		<circle cx="151.000000" cy="152.000000" r="80.000000" fill="#FFFFFF"/>
		<path d="M183.291 117.837L183.85 115.211C185.396 110.871 188.149 106.105 191.932 101.596C194.421 98.6301 197.097 96.0839 199.777 94.0406L199.748 94L186.279 103.782L186.281 103.772L166.922 117.837L183.291 117.837ZM129.455 99.8369L185.742 99.8369L170 111.274L170.002 111.277L151.212 124.923C155.167 121.568 157.226 119.004 156.577 117.879C156.569 117.865 156.56 117.851 156.551 117.837L150.166 117.837L148.194 127.118L119.176 148.2L129.455 99.8423L129.455 99.8369ZM116.814 159.12C116.825 159.136 116.835 159.152 116.845 159.168L116.367 161.416L116.364 161.421L116.367 161.419L109.263 194.837L118.418 194.837L123.921 190.838L123.927 190.847L147.179 173.96C143.744 176.28 140.136 176.843 138.815 175.152C138.477 174.719 138.319 174.177 138.322 173.563L141.877 156.837L175.002 156.837L178.828 138.837L145.703 138.837L147.106 132.234L130.94 143.98L130.939 143.978L102 164.996C109.145 160.133 115.689 157.513 116.814 159.12ZM148.13 173.268L148.11 173.283L148.201 173.217L148.198 173.214C148.176 173.232 148.153 173.25 148.13 173.268ZM124.372 194.837L135.521 186.737L133.8 194.837L133.786 194.837C122.272 198.853 112.082 204.01 103.727 209.962L103.665 209.877L124.374 194.837L124.372 194.837Z" fill="#014BAC" fill-opacity="1.000000"/>
	</g>
	<defs>
		<clipPath id="clip2_1">
			<rect width="300.000000" height="300.000000" fill="white"/>
		</clipPath>
	</defs>
</svg>
