<?xml version="1.0" standalone="no"?>
<!DOCTYPE svg PUBLIC "-//W3C//DTD SVG 20010904//EN"
 "http://www.w3.org/TR/2001/REC-SVG-20010904/DTD/svg10.dtd">
<svg version="1.0" xmlns="http://www.w3.org/2000/svg"
 width="300.000000pt" height="300.000000pt" viewBox="0 0 300.000000 300.000000"
 preserveAspectRatio="xMidYMid meet">
<metadata>
Created by potrace 1.14, written by Peter Selinger 2001-2017
</metadata>
<g transform="translate(0.000000,300.000000) scale(0.100000,-0.100000)"
fill="#000000" stroke="none">
<path d="M694 2479 c-67 -25 -133 -84 -164 -145 l-25 -49 -3 -766 c-2 -753 -2
-768 18 -822 26 -69 83 -135 146 -167 l49 -25 766 -3 c753 -2 768 -2 822 18
69 26 135 83 167 146 l25 49 3 766 c2 753 2 768 -18 822 -26 69 -83 135 -146
167 l-49 25 -770 2 c-748 2 -771 2 -821 -18z m1021 -224 c275 -76 494 -296
571 -576 25 -89 25 -309 0 -398 -78 -282 -295 -499 -577 -577 -89 -25 -309
-25 -398 0 -282 78 -499 295 -577 577 -25 89 -25 309 0 398 86 313 343 543
661 595 57 9 260 -3 320 -19z"/>
<path d="M1824 1934 c-167 -121 -162 -114 -73 -114 l76 0 18 46 c10 26 37 71
61 100 25 30 43 54 41 54 -2 0 -57 -39 -123 -86z"/>
<path d="M1297 1993 c-8 -14 -99 -455 -95 -459 8 -8 270 189 278 210 5 11 11
33 14 49 6 23 11 27 41 27 37 0 43 -8 23 -29 -7 -8 37 22 97 66 61 44 130 94
154 111 l44 32 -276 0 c-152 0 -278 -3 -280 -7z"/>
<path d="M1269 1529 c-212 -154 -219 -159 -172 -135 27 13 73 22 73 13 0 -1
-16 -76 -35 -166 -19 -90 -35 -169 -35 -177 0 -10 12 -14 40 -14 35 0 57 12
167 93 99 71 123 93 106 95 -31 5 -33 20 -15 108 l17 79 167 3 166 2 11 50 c6
27 14 68 17 90 l7 40 -163 0 -162 0 4 30 c3 17 4 30 3 30 -1 0 -90 -63 -196
-141z"/>
<path d="M1238 1047 c-122 -90 -127 -96 -53 -60 33 17 81 38 108 48 26 10 47
23 47 29 0 6 3 21 6 34 4 12 2 22 -2 21 -5 0 -53 -33 -106 -72z"/>
</g>
</svg>
